# xmcd
#
# Track frame offsets:
#	150
#	9275
#	21467
#	32155
#	41327
#	55202
#	64840
#	76292
#	86512
#	95157
#	102772
#	114180
#	124825
#	131410
#	142255
#	152350
#	162580
#	173915
#	183882
#	193740
#	203072
#	212755
#	220427
#	231477
#	240435
#	250280
#	261827
#	271585
#	280205
#	289345
#	298177
#
# Disc length: 4100 seconds
#
# Revision: 1
# Processed by: cddbd v1.5.1PL0 Copyright (c) Steve Scherf et al.
# Submitted via: EasyCDDAExtractor 7.1.0.1
#
DISCID=cb10021f
DTITLE=Various Artist - That'll Flat Git It - Disc 16
DYEAR=1999
DGENRE=Rockabilly
TTITLE0=Luke McDaniel - My Baby Don't Rock
TTITLE1=Tommy Blake - You Better Believe It
TTITLE2=Kenny Parchman - What's The Reason
TTITLE3=Harold Jenkins - I Need Your Lovin' Kiss
TTITLE4=Gene Simmons - Drinkin' Scotch
TTITLE5=Unidentified #1 - Between Here And There
TTITLE6=Barbara Pittman - Sentimental Fool
TTITLE7=Unidentified #2 - Slewfoot Sue
TTITLE8=Narvel Felts - Cry Baby Cry
TTITLE9=Jimmy Haggett - Rabbit Action
TTITLE10=Malcolm Yelvington - Rockin' With My Baby
TTITLE11=Ray Harris - Come On Little Mama (Alternate)
TTITLE12=Johnny Powers - Waiting For You (Alternate)
TTITLE13=Kenneth Parchman - Tennessee Zip
TTITLE14=Gene Ross - Everybody's Trying To Kiss My Baby
TTITLE15=Unidentified #3 - I'll Be Rockin'
TTITLE16=Curley Griffin - Got Rockin' On My Mind
TTITLE17=Jack Earls - My Gal Marry-ann
TTITLE18=Luke McDaniel - Go Ahead Baby
TTITLE19=Ken Cook - I Fell In Love
TTITLE20=Jimmy Haggett - How Come You Do Me Like You Do
TTITLE21=Tommy Ruick - Prisoner Of The Blues
TTITLE22=Macy Skipper - Bop Pills
TTITLE23=Warren Smith - Stop The World
TTITLE24=Kenneth Parchman - Love Crazy Baby
TTITLE25=Sonny Burgess - Ain't Gonna Do It
TTITLE26=Jimmy Wages - Mad Man (2)
TTITLE27=Teddy Reidel - Me And My Blues
TTITLE28=Mack Self - I Vibrate
TTITLE29=Unidentified #4 - Two Timin' Baby
TTITLE30=Jimmy Williams - Rock-a-bye-baby
EXTD=
EXTT0=
EXTT1=
EXTT2=
EXTT3=
EXTT4=
EXTT5=
EXTT6=
EXTT7=
EXTT8=
EXTT9=
EXTT10=
EXTT11=
EXTT12=
EXTT13=
EXTT14=
EXTT15=
EXTT16=
EXTT17=
EXTT18=
EXTT19=
EXTT20=
EXTT21=
EXTT22=
EXTT23=
EXTT24=
EXTT25=
EXTT26=
EXTT27=
EXTT28=
EXTT29=
EXTT30=
PLAYORDER=
